# xmcd
#
# Track frame offsets: 
#        182
#        18155
#        40410
#        63780
#        77827
#        98740
#        113282
#        137705
#        159072
#        174437
#        192795
#
# Disc length: 2724 seconds
#
# Revision: 2
# Processed by: cddbd v1.5.2PL0 Copyright (c) Steve Scherf et al.
# Submitted via: ExactAudioCopy v0.99pb5
#
DISCID=750aa20b
DTITLE=Crossroads - Between...
DYEAR=1994
DGENRE=Blues
TTITLE0=Blues Lives In Russia
TTITLE1=Diamond Rain
TTITLE2=Сколько можно терпеть
TTITLE3=Fool Boy
TTITLE4=By My Hand
TTITLE5=Be What You Are
TTITLE6=Вио
TTITLE7=Can't Get Away
TTITLE8=We Are Still Around
TTITLE9=Miracle
TTITLE10=Вторник
EXTD=YEAR: 1994
EXTT0=
EXTT1=
EXTT2=
EXTT3=
EXTT4=
EXTT5=
EXTT6=
EXTT7=
EXTT8=
EXTT9=
EXTT10=
PLAYORDER=
